<?xml version="1.0" standalone="no"?><!DOCTYPE svg PUBLIC "-//W3C//DTD SVG 1.1//EN" "http://www.w3.org/Graphics/SVG/1.1/DTD/svg11.dtd"><svg t="1624608321494" class="icon" viewBox="0 0 1024 1024" version="1.1" xmlns="http://www.w3.org/2000/svg" p-id="1675" xmlns:xlink="http://www.w3.org/1999/xlink" width="200" height="200"><defs><style type="text/css"></style></defs><path d="M890.3 627.3c-17.5-20.6-40.8-32.4-65.6-33.5-0.8-1.3-1.6-2.6-2.5-3.7L659.1 378.7c32.6-3.4 62.8-18.1 85.8-42 25.3-26.2 39.2-60.7 39.2-97 0-77.1-62.7-139.9-139.9-139.9-77.1 0-139.9 62.7-139.9 139.9 0 14.5 2.2 28.7 6.5 42.3-2-0.1-3.8-0.1-5.7-0.1-21.9 0-43.3 4.3-63.5 12.9-98.3 41.7-182 110.7-242.1 199.6-61.5 91.2-94 197.6-94 308 0 32.6 2.9 65.4 8.6 97.4 3 16.5 17.2 28.5 34 28.5H633c19 0 34.5-15.5 34.5-34.5V502.5l90.9 117.7c-10.1 9.9-18.5 22.1-24.4 35.7-6.9 15.8-10.3 32.7-10.3 50.5 0 19 15.5 34.5 34.5 34.5s34.5-15.5 34.5-34.5c0-22.9 13.6-43.7 28.4-43.7 14.9 0 28.4 20.8 28.4 43.7v187.3c0 19 15.5 34.5 34.5 34.5s34.5-15.5 34.5-34.5V706.3c-0.1-29.7-10.1-57.8-28.2-79zM585.7 396.4c8.4 14.1 12.8 30.6 12.8 47.5v415.3H178c-2.2-18.8-3.4-37.8-3.4-56.8 0-194.1 115.5-368.4 294.2-444.1 11.9-5 24.3-7.6 36.9-7.6 18 0 35.7 5.4 51.2 15.7 10.9 7.2 19.9 16.3 26.8 26.9 0.6 1.1 1.3 2.1 2 3.1z m129.6-156.6c0 39-31.7 70.9-70.9 70.9-39 0-70.9-31.7-70.9-70.9 0-39 31.7-70.9 70.9-70.9 39 0 70.9 31.8 70.9 70.9z" fill="#515151" p-id="1676"></path></svg>