<?xml version="1.0" standalone="no"?><!DOCTYPE svg PUBLIC "-//W3C//DTD SVG 1.1//EN" "http://www.w3.org/Graphics/SVG/1.1/DTD/svg11.dtd"><svg t="1624284466052" class="icon" viewBox="0 0 1024 1024" version="1.1" xmlns="http://www.w3.org/2000/svg" p-id="1746" xmlns:xlink="http://www.w3.org/1999/xlink" width="200" height="200"><defs><style type="text/css"></style></defs><path d="M822.1 517.7H203.8c-41.5 0-75.1-33.6-75.1-75.1v-92.1c0-41.5 33.6-75.1 75.1-75.1H822c41.5 0 75.1 33.6 75.1 75.1v92.1c0.1 41.5-33.6 75.1-75 75.1z" fill="#515151" p-id="1747"></path><path d="M822.1 251.8h-67.4c20.8-18.1 39.9-41.3 43.3-66.9 2.1-15.3-0.4-38-23.9-59.6-25.6-23.5-65.7-32.5-107.1-23.9-35.2 7.2-98.2 33-149 122.6-50.9-89.7-113.8-115.4-149.1-122.7-41.4-8.5-81.4 0.4-107.1 23.9-23.5 21.6-26 44.3-23.9 59.6 3.5 25.6 22.5 48.8 43.3 66.9h-77.3c-54.4 0-98.6 44.2-98.6 98.6v92.1c0 42.2 26.7 78.2 64.1 92.2V787c0 59.9 48.5 108.6 108 108.6h482.1c59.6 0 108-48.7 108-108.6V529.9c31.6-16.4 53.3-49.5 53.3-87.5v-92c-0.1-54.4-44.4-98.6-98.7-98.6zM676.4 147.3c31.4-6.5 54.7 2.3 65.9 12.5 10.3 9.5 9.5 15.9 9.1 18.7-3.1 23.3-46.4 55.3-76 70.6-1.5 0.8-2.8 1.6-4 2.6H556.2c42.2-77.4 92.4-98.7 120.2-104.4z m-316 101.9c-28.8-14.8-72.9-47.4-76-70.6-0.4-2.8-1.2-9.2 9.1-18.7 11.2-10.3 34.4-19 65.9-12.5 27.8 5.7 78 27 120.3 104.5H364.4c-1.2-1.1-2.5-2-4-2.7zM152.2 442.5v-92.1c0-28.5 23.2-51.7 51.7-51.7h291v195.4h-291c-28.6 0.1-51.7-23.1-51.7-51.6z m64 344.6v-246h278.6v307.6H277.3c-33.7 0.1-61.1-27.6-61.1-61.6z m543.2 61.7H541.8V541.2h278.6v246c0.1 33.9-27.3 61.6-61 61.6z m114.3-406.3c0 28.5-23.2 51.7-51.7 51.7H541.8V298.8H822c28.5 0 51.7 23.2 51.7 51.7v92z" fill="#515151" p-id="1748"></path></svg>