<?xml version="1.0" standalone="no"?><!DOCTYPE svg PUBLIC "-//W3C//DTD SVG 1.1//EN" "http://www.w3.org/Graphics/SVG/1.1/DTD/svg11.dtd"><svg t="1624608693394" class="icon" viewBox="0 0 1024 1024" version="1.1" xmlns="http://www.w3.org/2000/svg" p-id="2237" xmlns:xlink="http://www.w3.org/1999/xlink" width="200" height="200"><defs><style type="text/css"></style></defs><path d="M375.6 861V726.4c0-74.3 60.2-134.5 134.5-134.5s134.5 60.2 134.5 134.5V861h134.5V491H890L510.1 165.4 130.2 491h110.9v370h134.5z m470.8-302.7V861c0 37.1-30.1 67.3-67.3 67.3h-538c-37.1 0-67.3-30.1-67.3-67.3V558.3h-43.6C93.1 558.3 63 528.2 63 491c0-19.6 8.6-38.3 23.5-51.1l379.9-325.6c25.2-21.6 62.4-21.6 87.6 0L933.8 440c28.2 24.2 31.4 66.6 7.3 94.8-12.8 14.9-31.4 23.5-51 23.5h-43.7zM442.9 861h134.5V726.4c0-37.1-30.1-67.3-67.3-67.3s-67.3 30.1-67.3 67.3V861h0.1z" fill="#515151" p-id="2238"></path></svg>