<?xml version="1.0" standalone="no"?><!DOCTYPE svg PUBLIC "-//W3C//DTD SVG 1.1//EN" "http://www.w3.org/Graphics/SVG/1.1/DTD/svg11.dtd"><svg t="1624284446923" class="icon" viewBox="0 0 1024 1024" version="1.1" xmlns="http://www.w3.org/2000/svg" p-id="1608" xmlns:xlink="http://www.w3.org/1999/xlink" width="200" height="200"><defs><style type="text/css"></style></defs><path d="M526.2 586.2c51.9 47.3 131.3 47.3 183.2 0 7.5-6.9 19-6.9 26.5 0 29.7 27.2 70 39.7 109.9 34.2 14-1.8 27.7-5.8 40.5-11.9v164.4c0 82.3-66.8 149.1-149.1 149.1h-448C206.8 922 140 855.2 140 772.9V608.1c16 7.8 33.3 12.3 51 13.3 36.5 2.2 72.3-10.5 99.2-35.2 7.5-6.9 19-6.9 26.5 0 51.9 47.3 131.3 47.3 183.2 0 7.4-6.9 18.9-6.9 26.4 0h-0.1z m281-485c31.9-0.1 60.4 19.7 71.6 49.6l73.1 219.4 2.4 6.7 1.1 3.1c6.4 21.3 7.2 43.9 2.3 65.6-12.7 53.6-57.4 93.7-112 100.7-39.9 5.5-80.1-7.1-109.8-34.2-7.5-6.9-19.1-6.9-26.5 0-51.9 47.3-131.3 47.3-183.2 0-7.4-6.9-19-6.9-26.4 0-51.9 47.3-131.3 47.3-183.2 0-7.5-6.9-19-6.9-26.5 0-27 24.6-62.9 37.3-99.4 34.9-64.2-3.7-116.6-52.5-124.7-116.2-1.8-17.1-0.2-34.4 4.8-50.8l0.3-1c1.1-3.4 2.3-6.8 3.6-10.1L147 150.8c11.2-30 39.9-49.8 71.9-49.6h588.3z" fill="#515151" p-id="1609"></path></svg>