<?xml version="1.0" standalone="no"?><!DOCTYPE svg PUBLIC "-//W3C//DTD SVG 1.1//EN" "http://www.w3.org/Graphics/SVG/1.1/DTD/svg11.dtd"><svg t="1624608613317" class="icon" viewBox="0 0 1024 1024" version="1.1" xmlns="http://www.w3.org/2000/svg" p-id="2095" xmlns:xlink="http://www.w3.org/1999/xlink" width="200" height="200"><defs><style type="text/css"></style></defs><path d="M498.4 402c57.8 0 104.8-47.1 104.8-104.8s-47.1-104.8-104.8-104.8-104.8 47.1-104.8 104.8S440.6 402 498.4 402z m0-169c34.2 0 62 27.8 62 62s-27.8 62-62 62-62-27.8-62-62 27.8-62 62-62zM288.8 406.3C231 406.3 184 453.4 184 511.1s47 104.8 104.8 104.8 104.8-47.1 104.8-104.8-47.1-104.8-104.8-104.8z m0 169c-34.2 0-62-27.8-62-62s27.8-62 62-62 62 27.8 62 62c0 34.1-27.8 62-62 62z m524-62.1c0-57.8-47.1-104.8-104.8-104.8-59.9-2.1-107 44.9-107 104.8S648.1 618 705.8 618c60 0 107-47 107-104.8zM708 575.3c-34.2 0-62-27.8-62-62s25.7-64.2 62-64.2c34.2 0 62 27.8 62 62s-27.7 64.2-62 64.2z m-209.6 47c-57.8 0-104.8 47.1-104.8 104.8S440.6 832 498.4 832s104.8-47.1 104.8-104.8c2.2-57.8-44.9-104.9-104.8-104.9z m0 169c-34.2 0-62-27.8-62-62s27.8-62 62-62 62 27.8 62 62c2.2 32.1-25.6 62-62 62z" fill="#515151" p-id="2096"></path><path d="M907 853.3H733.7c107-74.9 179.7-198.9 179.7-340.1 0-228.9-186.1-415-415-415S85.5 284.3 85.5 513.2s186.1 415 415 415c29.9 0 59.9-4.3 87.7-8.6h320.9c17.1 0 32.1-15 32.1-32.1 0-17-15-34.2-34.2-34.2z m-408.6 8.6c-192.5 0-350.8-156.2-350.8-350.8 0-192.5 156.2-350.8 350.8-350.8s350.8 158.3 350.8 353c0 192.4-156.1 348.6-350.8 348.6z" fill="#515151" p-id="2097"></path></svg>