<?xml version="1.0" standalone="no"?><!DOCTYPE svg PUBLIC "-//W3C//DTD SVG 1.1//EN" "http://www.w3.org/Graphics/SVG/1.1/DTD/svg11.dtd"><svg t="1624608587720" class="icon" viewBox="0 0 1024 1024" version="1.1" xmlns="http://www.w3.org/2000/svg" p-id="1955" xmlns:xlink="http://www.w3.org/1999/xlink" width="200" height="200"><defs><style type="text/css"></style></defs><path d="M507.3 873.2h3.2c25 0 45.3-20.3 45.3-45.3 0-25-20.3-45.3-45.3-45.3l-0.1 0.1c-25-0.8-46 18.7-46.8 43.8-0.9 24.9 18.7 45.9 43.7 46.7z" fill="#515151" p-id="1956"></path><path d="M720 63.9H304.9c-51.5 0-93.5 42-93.5 93.5v709.2c0 51.5 42 93.5 93.5 93.5H720c51.5 0 93.5-42 93.5-93.5V157.5c0-51.5-42-93.6-93.5-93.6z m40.3 802.8c0 22.3-18.1 40.3-40.3 40.4H304.9c-22.3-0.1-40.3-18.1-40.3-40.4V745.5h495.8v121.2z m0-174.4H264.6V157.5c0-22.3 18.1-40.4 40.3-40.4H720c22.2 0 40.3 18.1 40.3 40.4v534.8z" fill="#515151" p-id="1957"></path></svg>