<?xml version="1.0" standalone="no"?><!DOCTYPE svg PUBLIC "-//W3C//DTD SVG 1.1//EN" "http://www.w3.org/Graphics/SVG/1.1/DTD/svg11.dtd"><svg t="1624284395430" class="icon" viewBox="0 0 1024 1024" version="1.1" xmlns="http://www.w3.org/2000/svg" p-id="1330" xmlns:xlink="http://www.w3.org/1999/xlink" width="200" height="200"><defs><style type="text/css"></style></defs><path d="M203.9 453v377c0.2 14.9 6.1 29.1 16.6 39.6 10.4 10.7 24.7 16.8 39.7 16.9h510.2c14.9-0.1 29.2-6.2 39.7-16.9 10.5-10.5 16.4-24.8 16.6-39.6V453H203.9z m89.8 132.8c3-2.5 7.6-3.8 14-3.8h173.1c6.7 0 11.5 1.3 14.5 3.8 2.6 2.3 4 7 3.9 14 0 5.8-1.1 10.1-3.4 13-3.3 4-8.3 5.9-15 5.9H307.7c-6.1 0-10.8-1.4-14-4.3-3-2.7-4.5-7.6-4.5-14.6 0-6.8 1.5-11.4 4.5-14z m211.4 179c-3.3 4-8.3 5.9-15 5.9H297.4c-6.2 0-10.8-1.5-14-4.6-3-2.5-4.5-7.3-4.5-14.3 0-7.4 1.5-12.3 4.5-14.8 3-2.8 7.6-4.3 14-4.3H490c6.7 0 11.5 1.4 14.5 4.3 2.6 2.5 3.9 7.5 3.9 14.8 0.1 5.8-1 10.2-3.3 13zM776 715.4c-3 3.8-7.7 5.7-14.2 5.7H698c-0.5 29.7-4.9 49.5-13.2 59.4-9.3 11.2-23.5 16.7-42.4 16.7-26.5-0.7-46.5-5-59.8-12.7-6-3.1-9.1-8.4-9.2-15.9 0-5.4 1.2-9.9 3.7-13.5 2.6-3.4 5.9-5.2 9.8-5.4 5.3 0 12.6 1.7 21.9 5.1 13.2 3.6 23.4 5.4 30.6 5.4 9.5 0 15.5-3.1 17.9-9.2 1.4-3.2 2.3-13.2 2.6-30h-106c-5.8 0-10.3-1.3-13.4-4-2.6-2.5-4-7.1-4-13.8 0-6.5 1.3-10.9 4-13.2 2.8-2.5 7.3-3.8 13.4-3.8h104.6c-0.9-8.3-2.1-17-3.7-26.2h-95.7c-5.6 0-9.8-1.4-12.6-4.1-2.6-2.3-4-6.7-4-13 0-5.9 1.3-10.1 4-12.4 2.6-2.2 6.8-3.2 12.6-3.2h89.3c-2.1-9.2-4.4-17.9-6.9-26.2-33.7 3.4-60.3 5.1-79.6 5.1-10.2 0-15.3-6.4-15.3-19.2 0.2-8.3 4.9-12.8 14.2-13.5 66.9-2.7 126.5-9.4 178.7-20.3 3.9-0.6 7.9-1 11.9-1.1 4.1-0.1 7.9 1.8 10.3 5.1 2.8 3.3 4.3 7.5 4.2 11.9 0 7.7-3.8 12.7-11.3 14.9-23.2 5.2-48.7 9.5-76.7 13 3 10.4 5.6 20.5 7.9 30.2h70.9c6 0 10.2 1.2 12.6 3.5 2.5 2 3.7 6 3.7 12.2 0 5.2-1 9.1-2.9 11.6-3 3.6-7.5 5.4-13.4 5.4h-64c1.6 9.2 2.8 17.9 3.7 26.2h65.4c6.3 0 10.9 1.4 13.7 4.1 2.5 2 3.7 6.3 3.7 13 0 5.5-1.1 9.5-3.2 12.2z" fill="#515151" p-id="1331"></path><path d="M923.8 330.7h0.7l-4.9-5.1c-7.4-7.7-17.3-12-28-12.3h-73.4l-29.7-101c-0.1-1.8-0.7-2.9-1.4-3.6-5.8-19.6-21.6-34.3-41.6-38.5-19-3.6-38.6-2-56.7 4.8-2.3 0.4-4.6 1-6.8 1.9l-87 30.7-138-82.1c-1.5-1.3-3.2-2.3-5.1-3-22.5-13.7-49.8-17.2-75-9.6-26 6.5-48.1 22.6-62.4 45.3-1.7 1.8-3 3.8-4 6.1l-85.7 149h-85.9c-10.6 0.2-20.5 4.6-27.9 12.2-7.6 7.6-11.8 17.7-11.9 28.5v61.4c0.5 22.3 18 40.1 39.9 40.5h39.4V830c0.3 22.5 9.1 43.6 24.9 59.6 15.7 15.5 36.4 24.1 58.4 24.4H772c22 0 42.7-8.7 58.3-24.5 15.7-15.8 24.5-37 24.7-59.5V456h36.7c21.8-0.4 39.3-18.2 39.8-40.6V354c-0.2-8.5-2.9-16.5-7.7-23.3zM692.1 205.4c1.9-0.3 3.8-1 5.4-2.2 13.3-4.7 27.5-5.6 41.3-2.5h0.1c9.7 1.8 17.6 8.8 20.6 18.1v1.9l27.6 92.6h-15.5l-143.2-85.8 63.7-22.1z m-129.6 18.4l150.3 89.5h-269l68.8-120 49.9 30.5z m-226.6-44l1.5-1.5v-1.1c0.3-0.4 0.5-0.8 0.6-1.2 0.1-0.3 0.2-0.5 0.3-0.6 0.6-0.5 1.2-1.2 1.7-1.9h2v-2.9c10.3-13.4 24.8-23.1 41.2-27.4 19.4-5.6 40.4-2.6 57.5 8.1l44.7 30.4-76.1 131.8h-150l76.6-133.7zM823.5 830c-0.2 14.2-5.8 27.5-15.8 37.6-9.8 10.1-23.5 15.9-37.5 16H260.1c-14.1-0.1-27.7-5.9-37.6-16.1-10-10-15.5-23.4-15.7-37.5V456h616.7v374z m78-414.7c-0.2 2.7-1.2 5.2-2.8 7.3-2.1 1.7-4.5 2.7-7.2 3H138.9c-2.7-0.2-5.1-1.2-7.2-3-1.7-2.1-2.6-4.6-2.8-7.3v-61.1c0.2-2.7 1.2-5.3 2.8-7.4 2.1-1.6 4.6-2.6 7.2-2.8h752.5c2.6 0.2 5.1 1.2 7.2 2.8 1.6 2.2 2.6 4.7 2.8 7.4v61.1z" fill="#515151" p-id="1332"></path><path d="M328.5 262.1l58.8 30.9 13.8-26.8-58.8-31.1zM438.1 199.3l-58.8-32.1-14.9 26.9 58.8 32.2z" fill="#515151" p-id="1333"></path></svg>