<?xml version="1.0" standalone="no"?><!DOCTYPE svg PUBLIC "-//W3C//DTD SVG 1.1//EN" "http://www.w3.org/Graphics/SVG/1.1/DTD/svg11.dtd"><svg t="1624608255145" class="icon" viewBox="0 0 1024 1024" version="1.1" xmlns="http://www.w3.org/2000/svg" p-id="1531" xmlns:xlink="http://www.w3.org/1999/xlink" width="200" height="200"><defs><style type="text/css"></style></defs><path d="M831.6 718.5H347.5c-14.8 0-27.5-10.7-30.2-25.2l-96.4-522.9h-90.3c-17 0-30.7-13.7-30.7-30.7s13.7-30.7 30.7-30.7h115.9c14.8 0 27.5 10.7 30.2 25.2l96.4 522.9h458.5c17 0 30.7 13.7 30.7 30.7s-13.7 30.7-30.7 30.7z" fill="#515151" p-id="1532"></path><path d="M697.2 569.3H323.7l-60.3-347.1h610.2c15.6 0 26.9 14.8 22.7 29.9L838 462.4c-17.6 63.2-75.2 106.9-140.8 106.9z" fill="#515151" p-id="1533"></path><path d="M697.2 600.1H297.8l-71-408.6h646.8c17.1 0 32.9 7.8 43.2 21.5 10.3 13.6 13.7 30.9 9.1 47.4l-58.5 210.2c-21 76.3-91 129.5-170.2 129.5z m-347.6-61.5h347.7c51.6 0 97.3-34.7 111.1-84.4l55.9-201.1H300.1l49.5 285.5zM413.8 919.3c-47.9 0-86.9-39-86.9-87 0-47.9 39-86.9 86.9-86.9s86.9 39 86.9 86.9c0.2 48-38.8 87-86.9 87z m0-134.5c-26.2 0-47.6 21.2-47.6 47.6 0 26.2 21.4 47.6 47.6 47.6 26.2 0 47.6-21.4 47.6-47.6 0-26.4-21.4-47.6-47.6-47.6zM728.4 919.3c-47.9 0-86.9-39-86.9-87 0-47.9 39-86.9 86.9-86.9s86.9 39 86.9 86.9c0.2 48-38.8 87-86.9 87z m0-134.5c-26.2 0-47.6 21.2-47.6 47.6 0 26.2 21.4 47.6 47.6 47.6s47.6-21.4 47.6-47.6c0-26.4-21.4-47.6-47.6-47.6z" fill="#515151" p-id="1534"></path><path d="M866.4 372.8H712.3c-13.6 0-24.6-11.1-24.6-24.6 0-13.6 11.1-24.6 24.6-24.6h154.1c13.6 0 24.6 11.1 24.6 24.6 0.1 13.6-11 24.6-24.6 24.6zM809.5 492.9H630.8c-13.6 0-24.6-11.1-24.6-24.6 0-13.5 11.1-24.6 24.6-24.6h178.8c13.6 0 24.6 11.1 24.6 24.6 0 13.6-11 24.6-24.7 24.6z" fill="#515151" p-id="1535"></path></svg>