<?xml version="1.0" standalone="no"?><!DOCTYPE svg PUBLIC "-//W3C//DTD SVG 1.1//EN" "http://www.w3.org/Graphics/SVG/1.1/DTD/svg11.dtd"><svg t="1624608850215" class="icon" viewBox="0 0 1024 1024" version="1.1" xmlns="http://www.w3.org/2000/svg" p-id="2378" xmlns:xlink="http://www.w3.org/1999/xlink" width="200" height="200"><defs><style type="text/css"></style></defs><path d="M518.5 596.8l-106.9-64.2L520 397l50.1 40.1-62.6 78.3 106.9 64.2L506 715.1 455.9 675l62.6-78.2z m-390.4-28.1c0-106.3 43.1-202.5 112.7-272.2L445 92.4c37.6-37.6 98.5-37.6 136.1 0l204.1 204.1c69.7 69.7 112.7 165.9 112.7 272.2 0 212.6-172.3 384.9-384.9 384.9S128.1 781.3 128.1 568.7z m362.2-430.9L286.2 341.9c-59.8 59.8-94 140.5-94 226.8 0 177.2 143.6 320.8 320.8 320.8s320.8-143.6 320.8-320.8c0-86.3-34.1-167-94-226.8L535.7 137.8c-12.5-12.6-32.9-12.6-45.4 0z" fill="#515151" p-id="2379"></path></svg>